<mxfile host="65bd71144e">
    <diagram id="hs6UDYdS59wV-6m-uYcL" name="Page-1">
        <mxGraphModel dx="2503" dy="1474" grid="1" gridSize="10" guides="1" tooltips="1" connect="1" arrows="1" fold="1" page="1" pageScale="1" pageWidth="1169" pageHeight="827" math="0" shadow="0">
            <root>
                <mxCell id="0"/>
                <mxCell id="1" parent="0"/>
                <mxCell id="51" value="" style="edgeStyle=none;jumpStyle=arc;html=1;targetPerimeterSpacing=0;" parent="1" source="10" target="49" edge="1">
                    <mxGeometry relative="1" as="geometry"/>
                </mxCell>
                <mxCell id="10" value="&lt;b style=&quot;border-color: var(--border-color);&quot;&gt;Initialize ADC, &lt;br&gt;self-test and loop &lt;br&gt;until BRef detected&lt;br style=&quot;border-color: var(--border-color);&quot;&gt;&lt;/b&gt;&lt;span style=&quot;border-color: var(--border-color); background-color: initial;&quot;&gt;&lt;i style=&quot;border-color: var(--border-color);&quot;&gt;ADCInit()&lt;br style=&quot;border-color: var(--border-color);&quot;&gt;&lt;/i&gt;&lt;/span&gt;" style="ellipse;whiteSpace=wrap;html=1;" parent="1" vertex="1">
                    <mxGeometry x="-950" y="455" width="170" height="100" as="geometry"/>
                </mxCell>
                <mxCell id="18" value="&lt;b&gt;Initialize PID&lt;br&gt;&lt;/b&gt;&lt;i&gt;PIDInit() &lt;/i&gt;&lt;sup&gt;3&lt;/sup&gt;" style="ellipse;whiteSpace=wrap;html=1;dashed=1;" parent="1" vertex="1">
                    <mxGeometry x="-750" y="585" width="170" height="100" as="geometry"/>
                </mxCell>
                <mxCell id="28" value="" style="group" parent="1" vertex="1" connectable="0">
                    <mxGeometry x="730" y="-50" width="390" height="90" as="geometry"/>
                </mxCell>
                <mxCell id="7" value="Global configs / flags" style="rounded=0;whiteSpace=wrap;html=1;dashed=1;verticalAlign=top;" parent="28" vertex="1">
                    <mxGeometry y="-10" width="390" height="100" as="geometry"/>
                </mxCell>
                <mxCell id="3" value="motorConfigs" style="rounded=0;whiteSpace=wrap;html=1;" parent="28" vertex="1">
                    <mxGeometry x="20" y="20" width="110" height="50" as="geometry"/>
                </mxCell>
                <mxCell id="4" value="motorFlags&lt;br&gt;(GPIOR0)" style="rounded=0;whiteSpace=wrap;html=1;" parent="28" vertex="1">
                    <mxGeometry x="140" y="20" width="110" height="50" as="geometry"/>
                </mxCell>
                <mxCell id="5" value="faultFlags&lt;br&gt;(GPIOR1)" style="rounded=0;whiteSpace=wrap;html=1;" parent="28" vertex="1">
                    <mxGeometry x="260" y="20" width="110" height="50" as="geometry"/>
                </mxCell>
                <mxCell id="47" style="edgeStyle=none;jumpStyle=arc;html=1;entryX=0.5;entryY=0;entryDx=0;entryDy=0;targetPerimeterSpacing=0;" parent="1" source="40" target="10" edge="1">
                    <mxGeometry relative="1" as="geometry"/>
                </mxCell>
                <mxCell id="40" value="&lt;b&gt;Initialize ports&lt;br&gt;&lt;/b&gt;&lt;span style=&quot;background-color: initial;&quot;&gt;&lt;i&gt;PortsInit()&lt;/i&gt;&lt;br&gt;&lt;u style=&quot;&quot;&gt;Switches as inputs&lt;/u&gt;&lt;br&gt;&lt;/span&gt;" style="ellipse;whiteSpace=wrap;html=1;" parent="1" vertex="1">
                    <mxGeometry x="-1050" y="335" width="170" height="100" as="geometry"/>
                </mxCell>
                <mxCell id="45" style="edgeStyle=none;jumpStyle=arc;html=1;exitX=1;exitY=1;exitDx=0;exitDy=0;entryX=0.5;entryY=0;entryDx=0;entryDy=0;targetPerimeterSpacing=0;" parent="1" target="44" edge="1">
                    <mxGeometry relative="1" as="geometry">
                        <mxPoint x="-812.5" y="305" as="sourcePoint"/>
                    </mxGeometry>
                </mxCell>
                <mxCell id="58" value="Enabled" style="edgeLabel;html=1;align=center;verticalAlign=middle;resizable=0;points=[];" parent="45" vertex="1" connectable="0">
                    <mxGeometry x="-0.2809" y="-1" relative="1" as="geometry">
                        <mxPoint as="offset"/>
                    </mxGeometry>
                </mxCell>
                <mxCell id="46" style="edgeStyle=none;jumpStyle=arc;html=1;exitX=0;exitY=1;exitDx=0;exitDy=0;entryX=0.5;entryY=0;entryDx=0;entryDy=0;targetPerimeterSpacing=0;" parent="1" target="40" edge="1">
                    <mxGeometry relative="1" as="geometry">
                        <mxPoint x="-917.5" y="305" as="sourcePoint"/>
                    </mxGeometry>
                </mxCell>
                <mxCell id="60" value="Disabled" style="edgeLabel;html=1;align=center;verticalAlign=middle;resizable=0;points=[];" parent="46" vertex="1" connectable="0">
                    <mxGeometry x="-0.2501" relative="1" as="geometry">
                        <mxPoint as="offset"/>
                    </mxGeometry>
                </mxCell>
                <mxCell id="48" style="edgeStyle=none;jumpStyle=arc;html=1;entryX=0.5;entryY=0;entryDx=0;entryDy=0;targetPerimeterSpacing=0;" parent="1" source="44" target="10" edge="1">
                    <mxGeometry relative="1" as="geometry"/>
                </mxCell>
                <mxCell id="44" value="&lt;b&gt;Initialize ports&lt;br&gt;&lt;/b&gt;&lt;span style=&quot;background-color: initial;&quot;&gt;&lt;i&gt;PortsInit()&lt;/i&gt;&lt;br&gt;&lt;u style=&quot;&quot;&gt;Switches as outputs&lt;/u&gt;&amp;nbsp;&lt;sup&gt;2&lt;/sup&gt;&lt;br&gt;&lt;/span&gt;" style="ellipse;whiteSpace=wrap;html=1;" parent="1" vertex="1">
                    <mxGeometry x="-860" y="335" width="170" height="100" as="geometry"/>
                </mxCell>
                <mxCell id="56" value="" style="edgeStyle=none;jumpStyle=arc;html=1;targetPerimeterSpacing=0;" parent="1" source="49" target="18" edge="1">
                    <mxGeometry relative="1" as="geometry"/>
                </mxCell>
                <mxCell id="49" value="&lt;b style=&quot;border-color: var(--border-color);&quot;&gt;Initialize remaining peripherals&lt;br style=&quot;border-color: var(--border-color);&quot;&gt;&lt;/b&gt;&lt;i style=&quot;border-color: var(--border-color);&quot;&gt;PLLInit(), T&lt;/i&gt;&lt;i style=&quot;border-color: var(--border-color); background-color: initial;&quot;&gt;imersInit()&lt;/i&gt;&lt;i&gt;&lt;span style=&quot;background-color: initial;&quot;&gt;&lt;br&gt;&lt;/span&gt;&lt;/i&gt;" style="ellipse;whiteSpace=wrap;html=1;" parent="1" vertex="1">
                    <mxGeometry x="-950" y="585" width="170" height="100" as="geometry"/>
                </mxCell>
                <mxCell id="66" value="&amp;nbsp;motorFlags" style="text;html=1;strokeColor=none;fillColor=none;align=center;verticalAlign=middle;whiteSpace=wrap;rounded=0;spacingLeft=8;spacing=8;spacingRight=8;" parent="1" vertex="1">
                    <mxGeometry x="-630" y="415" width="80" height="30" as="geometry"/>
                </mxCell>
                <mxCell id="79" value="&lt;span style=&quot;color: rgb(0, 0, 0); font-family: Helvetica; font-size: 12px; font-style: normal; font-variant-ligatures: normal; font-variant-caps: normal; font-weight: 400; letter-spacing: normal; orphans: 2; text-indent: 0px; text-transform: none; widows: 2; word-spacing: 0px; -webkit-text-stroke-width: 0px; background-color: rgb(251, 251, 251); text-decoration-thickness: initial; text-decoration-style: initial; text-decoration-color: initial; float: none; display: inline !important;&quot;&gt;&lt;sup&gt;2&lt;/sup&gt; this allows triggering the respective interrupt routines by writing to the PORTx registers&lt;/span&gt;" style="text;whiteSpace=wrap;html=1;align=center;" parent="1" vertex="1">
                    <mxGeometry x="-680" y="365" width="270" height="40" as="geometry"/>
                </mxCell>
                <mxCell id="81" value="&lt;sup&gt;3&lt;/sup&gt; only if speed control method&lt;br style=&quot;border-color: var(--border-color);&quot;&gt;is closed loop" style="text;whiteSpace=wrap;html=1;align=center;" parent="1" vertex="1">
                    <mxGeometry x="-760" y="535" width="170" height="40" as="geometry"/>
                </mxCell>
                <mxCell id="88" value="&lt;b&gt;Main Loop&lt;/b&gt;" style="ellipse;whiteSpace=wrap;html=1;" vertex="1" parent="1">
                    <mxGeometry x="380" y="-70" width="170" height="100" as="geometry"/>
                </mxCell>
                <mxCell id="89" style="edgeStyle=none;html=1;exitX=1;exitY=1;exitDx=0;exitDy=0;entryX=1;entryY=0;entryDx=0;entryDy=0;" edge="1" parent="1" source="88" target="88">
                    <mxGeometry relative="1" as="geometry">
                        <Array as="points">
                            <mxPoint x="550" y="30"/>
                            <mxPoint x="570" y="30"/>
                            <mxPoint x="590" y="20"/>
                            <mxPoint x="600"/>
                            <mxPoint x="600" y="-40"/>
                            <mxPoint x="590" y="-60"/>
                            <mxPoint x="570" y="-70"/>
                            <mxPoint x="550" y="-70"/>
                        </Array>
                    </mxGeometry>
                </mxCell>
                <mxCell id="90" value="remote.enable == TRUE" style="edgeLabel;html=1;align=center;verticalAlign=middle;resizable=0;points=[];" vertex="1" connectable="0" parent="89">
                    <mxGeometry x="-0.6172" relative="1" as="geometry">
                        <mxPoint x="46" y="-10" as="offset"/>
                    </mxGeometry>
                </mxCell>
                <mxCell id="113" style="html=1;exitX=0.5;exitY=0;exitDx=0;exitDy=0;dashed=1;" edge="1" parent="1" source="115" target="118">
                    <mxGeometry relative="1" as="geometry"/>
                </mxCell>
                <mxCell id="114" value="If remote enabled and data &lt;br&gt;available on serial buffer" style="edgeLabel;html=1;align=center;verticalAlign=middle;resizable=0;points=[];" vertex="1" connectable="0" parent="113">
                    <mxGeometry x="0.1509" relative="1" as="geometry">
                        <mxPoint x="78" y="-4" as="offset"/>
                    </mxGeometry>
                </mxCell>
                <mxCell id="135" style="edgeStyle=none;html=1;startArrow=none;startFill=0;entryX=0.766;entryY=0.074;entryDx=0;entryDy=0;entryPerimeter=0;" edge="1" parent="1" source="115" target="133">
                    <mxGeometry relative="1" as="geometry"/>
                </mxCell>
                <mxCell id="136" value="TIM0 overflow" style="edgeLabel;html=1;align=center;verticalAlign=middle;resizable=0;points=[];" vertex="1" connectable="0" parent="135">
                    <mxGeometry x="-0.3897" relative="1" as="geometry">
                        <mxPoint x="-15" y="6" as="offset"/>
                    </mxGeometry>
                </mxCell>
                <mxCell id="115" value="&lt;b&gt;Main Loop&lt;/b&gt;" style="ellipse;whiteSpace=wrap;html=1;" vertex="1" parent="1">
                    <mxGeometry x="360" y="400" width="100" height="100" as="geometry"/>
                </mxCell>
                <mxCell id="116" style="html=1;exitX=0.305;exitY=0.984;exitDx=0;exitDy=0;entryX=0.33;entryY=0.036;entryDx=0;entryDy=0;dashed=1;entryPerimeter=0;exitPerimeter=0;" edge="1" parent="1" source="118" target="115">
                    <mxGeometry relative="1" as="geometry"/>
                </mxCell>
                <mxCell id="118" value="&lt;span style=&quot;background-color: initial;&quot;&gt;&lt;b&gt;Send data to &lt;br&gt;SCPI parser and&lt;/b&gt;&lt;/span&gt;&lt;b style=&quot;border-color: var(--border-color);&quot;&gt;&lt;br style=&quot;border-color: var(--border-color);&quot;&gt;commands&lt;/b&gt;&lt;span style=&quot;background-color: initial;&quot;&gt;&lt;br&gt;&lt;/span&gt;" style="ellipse;whiteSpace=wrap;html=1;dashed=1;" vertex="1" parent="1">
                    <mxGeometry x="330" y="220" width="170" height="100" as="geometry"/>
                </mxCell>
                <mxCell id="120" style="html=1;exitX=1.004;exitY=0.628;exitDx=0;exitDy=0;startArrow=none;startFill=0;entryX=0.05;entryY=0.3;entryDx=0;entryDy=0;exitPerimeter=0;entryPerimeter=0;" edge="1" parent="1" source="121" target="115">
                    <mxGeometry relative="1" as="geometry">
                        <mxPoint x="330" y="520" as="targetPoint"/>
                    </mxGeometry>
                </mxCell>
                <mxCell id="145" style="edgeStyle=none;html=1;entryX=0.982;entryY=0.48;entryDx=0;entryDy=0;entryPerimeter=0;startArrow=none;startFill=0;" edge="1" parent="1" source="121" target="144">
                    <mxGeometry relative="1" as="geometry"/>
                </mxCell>
                <mxCell id="146" value="update" style="edgeLabel;html=1;align=center;verticalAlign=middle;resizable=0;points=[];" vertex="1" connectable="0" parent="145">
                    <mxGeometry x="-0.4165" relative="1" as="geometry">
                        <mxPoint x="-11" y="-6" as="offset"/>
                    </mxGeometry>
                </mxCell>
                <mxCell id="121" value="&lt;span style=&quot;background-color: initial;&quot;&gt;&lt;b&gt;Run Speed Controller&lt;br&gt;&lt;/b&gt;Limit changes with max delta value &lt;br&gt;in open loop. Pass through PID controller if closed loop.&lt;br&gt;&lt;/span&gt;" style="ellipse;whiteSpace=wrap;html=1;" vertex="1" parent="1">
                    <mxGeometry x="30" y="340" width="210" height="124" as="geometry"/>
                </mxCell>
                <mxCell id="122" style="html=1;exitX=0;exitY=0;exitDx=0;exitDy=0;entryX=0.982;entryY=0.376;entryDx=0;entryDy=0;startArrow=none;startFill=0;entryPerimeter=0;" edge="1" parent="1" source="115" target="121">
                    <mxGeometry relative="1" as="geometry">
                        <mxPoint x="335.1040764008567" y="505.35533905932766" as="sourcePoint"/>
                        <mxPoint x="424.8959235991433" y="505.35533905932675" as="targetPoint"/>
                    </mxGeometry>
                </mxCell>
                <mxCell id="123" value="&lt;span style=&quot;color: rgba(0, 0, 0, 0); font-family: monospace; font-size: 0px; text-align: start; background-color: rgb(251, 251, 251);&quot;&gt;%3CmxGraphModel%3E%3Croot%3E%3CmxCell%20id%3D%220%22%2F%3E%3CmxCell%20id%3D%221%22%20parent%3D%220%22%2F%3E%3CmxCell%20id%3D%222%22%20value%3D%22remote.enable%20%3D%3D%20TRUE%22%20style%3D%22edgeLabel%3Bhtml%3D1%3Balign%3Dcenter%3BverticalAlign%3Dmiddle%3Bresizable%3D0%3Bpoints%3D%5B%5D%3B%22%20vertex%3D%221%22%20connectable%3D%220%22%20parent%3D%221%22%3E%3CmxGeometry%20x%3D%22370.4386636630875%22%20y%3D%22240%22%20as%3D%22geometry%22%2F%3E%3C%2FmxCell%3E%3C%2Froot%3E%3C%2FmxGraphModel%3ESpeedCon&lt;/span&gt;" style="edgeLabel;html=1;align=center;verticalAlign=middle;resizable=0;points=[];" vertex="1" connectable="0" parent="122">
                    <mxGeometry x="0.3477" y="3" relative="1" as="geometry">
                        <mxPoint as="offset"/>
                    </mxGeometry>
                </mxCell>
                <mxCell id="124" value="If speed controller requested" style="edgeLabel;html=1;align=center;verticalAlign=middle;resizable=0;points=[];" vertex="1" connectable="0" parent="122">
                    <mxGeometry x="-0.2388" relative="1" as="geometry">
                        <mxPoint x="-12" y="-30" as="offset"/>
                    </mxGeometry>
                </mxCell>
                <mxCell id="132" style="edgeStyle=none;html=1;entryX=0;entryY=1;entryDx=0;entryDy=0;startArrow=none;startFill=0;" edge="1" parent="1" source="131" target="121">
                    <mxGeometry relative="1" as="geometry"/>
                </mxCell>
                <mxCell id="140" value="read" style="edgeLabel;html=1;align=center;verticalAlign=middle;resizable=0;points=[];" vertex="1" connectable="0" parent="132">
                    <mxGeometry x="-0.4562" y="-1" relative="1" as="geometry">
                        <mxPoint y="-4" as="offset"/>
                    </mxGeometry>
                </mxCell>
                <mxCell id="131" value="&lt;span style=&quot;border-color: var(--border-color);&quot;&gt;&lt;i style=&quot;&quot;&gt;speedInput&lt;/i&gt;&lt;/span&gt;" style="text;html=1;align=center;verticalAlign=middle;resizable=0;points=[];autosize=1;strokeColor=none;fillColor=none;dashed=1;" vertex="1" parent="1">
                    <mxGeometry x="-30" y="480" width="80" height="30" as="geometry"/>
                </mxCell>
                <mxCell id="138" style="edgeStyle=none;html=1;startArrow=none;startFill=0;entryX=0.943;entryY=1.013;entryDx=0;entryDy=0;entryPerimeter=0;" edge="1" parent="1" source="133" target="131">
                    <mxGeometry relative="1" as="geometry">
                        <mxPoint x="45" y="555.9574468085107" as="targetPoint"/>
                    </mxGeometry>
                </mxCell>
                <mxCell id="139" value="update" style="edgeLabel;html=1;align=center;verticalAlign=middle;resizable=0;points=[];" vertex="1" connectable="0" parent="138">
                    <mxGeometry x="-0.3763" y="1" relative="1" as="geometry">
                        <mxPoint x="-18" y="7" as="offset"/>
                    </mxGeometry>
                </mxCell>
                <mxCell id="141" style="edgeStyle=none;html=1;exitX=0.959;exitY=0.314;exitDx=0;exitDy=0;entryX=0;entryY=1;entryDx=0;entryDy=0;startArrow=none;startFill=0;exitPerimeter=0;" edge="1" parent="1" source="133" target="115">
                    <mxGeometry relative="1" as="geometry"/>
                </mxCell>
                <mxCell id="133" value="&lt;span style=&quot;background-color: initial;&quot;&gt;&lt;b&gt;ADC ISR&lt;br&gt;&lt;/b&gt;Measure current channel (either &lt;br&gt;speed input, current or others).&lt;br&gt;Set next channel for next measurements.&lt;br&gt;&lt;/span&gt;" style="ellipse;whiteSpace=wrap;html=1;" vertex="1" parent="1">
                    <mxGeometry x="130" y="495" width="220" height="180" as="geometry"/>
                </mxCell>
                <mxCell id="142" value="&lt;span style=&quot;border-color: var(--border-color);&quot;&gt;&lt;i style=&quot;&quot;&gt;speedInput&lt;/i&gt;&lt;/span&gt;" style="text;html=1;align=center;verticalAlign=middle;resizable=0;points=[];autosize=1;strokeColor=none;fillColor=none;dashed=1;" vertex="1" parent="1">
                    <mxGeometry x="80" y="545" width="80" height="30" as="geometry"/>
                </mxCell>
                <mxCell id="143" value="&lt;span style=&quot;background-color: initial;&quot;&gt;&lt;b&gt;TIM4Overflow ISR&lt;br&gt;&lt;/b&gt;If current waveform requested is block commutation, update duty cycle.&lt;br&gt;Update commutation ticks.&amp;nbsp;&lt;br&gt;&lt;/span&gt;" style="ellipse;whiteSpace=wrap;html=1;" vertex="1" parent="1">
                    <mxGeometry x="520" y="545" width="220" height="180" as="geometry"/>
                </mxCell>
                <mxCell id="144" value="&lt;span style=&quot;border-color: var(--border-color);&quot;&gt;&lt;i style=&quot;&quot;&gt;speedOutput&lt;/i&gt;&lt;/span&gt;" style="text;html=1;align=center;verticalAlign=middle;resizable=0;points=[];autosize=1;strokeColor=none;fillColor=none;dashed=1;" vertex="1" parent="1">
                    <mxGeometry x="-100" y="320" width="90" height="30" as="geometry"/>
                </mxCell>
                <mxCell id="148" style="edgeStyle=none;html=1;startArrow=none;startFill=0;" edge="1" parent="1" source="147" target="143">
                    <mxGeometry relative="1" as="geometry"/>
                </mxCell>
                <mxCell id="149" value="read" style="edgeLabel;html=1;align=center;verticalAlign=middle;resizable=0;points=[];" vertex="1" connectable="0" parent="148">
                    <mxGeometry x="0.3284" y="4" relative="1" as="geometry">
                        <mxPoint x="15" y="-6" as="offset"/>
                    </mxGeometry>
                </mxCell>
                <mxCell id="147" value="&lt;span style=&quot;border-color: var(--border-color);&quot;&gt;&lt;i style=&quot;&quot;&gt;speedOutput&lt;/i&gt;&lt;/span&gt;" style="text;html=1;align=center;verticalAlign=middle;resizable=0;points=[];autosize=1;strokeColor=none;fillColor=none;dashed=1;" vertex="1" parent="1">
                    <mxGeometry x="810" y="600" width="90" height="30" as="geometry"/>
                </mxCell>
                <mxCell id="150" value="&lt;span style=&quot;background-color: initial;&quot;&gt;&lt;b&gt;TIM4Overflow ISR&lt;br&gt;&lt;/b&gt;If current waveform requested is block commutation, update duty cycle.&lt;br&gt;Update commutation ticks.&amp;nbsp;&lt;br&gt;&lt;/span&gt;" style="ellipse;whiteSpace=wrap;html=1;" vertex="1" parent="1">
                    <mxGeometry x="320" y="685" width="220" height="180" as="geometry"/>
                </mxCell>
            </root>
        </mxGraphModel>
    </diagram>
</mxfile>